<svg xmlns="http://www.w3.org/2000/svg" width="480" height="500" viewBox="0 0 480 500" fill="none"><g clip-path="url(#clip0_8_531)"><path d="M135.676 333.965H48.064V500H135.676V333.965Z" fill="#1C194F"></path><path d="M202.624 333.775H0V380.916H202.624V333.775Z" fill="#C1E0F4"></path><path d="M83.8094 62.2594V0C37.5166 0 0 37.1682 0 83.0225C0 128.877 37.5166 166.045 83.8094 166.045V62.2594Z" fill="#1C194F"></path><path d="M167.619 103.776H83.8094V166.035H167.619V103.776Z" fill="#C1E0F4"></path><path d="M167.619 0H83.8094V62.2594H167.619V0Z" fill="#C1E0F4"></path><path d="M250.918 0V166.035C296.93 166.035 334.227 128.867 334.227 83.0125V0H250.918Z" fill="#EF548A"></path><path d="M167.609 0V83.0225C167.609 128.877 204.905 166.045 250.918 166.045V0H167.609Z" fill="#1C194F"></path><path d="M355.042 41.5063L480 166.035H355.042V41.5063Z" fill="#C1E0F4"></path><path d="M405.747 0H355.172C355.102 0 355.051 0.059836 355.051 0.119672V103.646C355.051 103.716 355.112 103.766 355.172 103.766H407.108C436.459 103.766 460.136 79.572 459.145 50.1027C458.205 21.9299 434.047 0 405.747 0Z" fill="#C1E0F4"></path><path d="M390.517 0H334.247C334.23 0 334.217 0.0133948 334.217 0.029918V166.005C334.217 166.022 334.23 166.035 334.247 166.035H390.517C390.533 166.035 390.547 166.022 390.547 166.005V0.029918C390.547 0.0133948 390.533 0 390.517 0Z" fill="#1C194F"></path><path d="M83.329 208.18H0.0200195V333.776H83.329V208.18Z" fill="#EF548A"></path><path d="M41.6695 249.686C64.6719 249.686 83.319 231.103 83.319 208.18C83.319 185.256 64.6719 166.673 41.6695 166.673C18.6671 166.673 0.0200195 185.256 0.0200195 208.18C0.0200195 231.103 18.6671 249.686 41.6695 249.686Z" fill="#1C194F"></path><path d="M166.978 166.664C120.966 166.664 83.6693 203.832 83.6693 249.686C83.6693 295.54 120.966 332.709 166.978 332.709C212.991 332.709 250.287 295.54 250.287 249.686C250.287 203.832 212.991 166.664 166.978 166.664ZM166.978 270.439C155.48 270.439 146.154 261.145 146.154 249.686C146.154 238.227 155.48 228.933 166.978 228.933C178.476 228.933 187.803 238.227 187.803 249.686C187.803 261.145 178.476 270.439 166.978 270.439Z" fill="#1C194F"></path><path d="M236.598 500H296.38V333.965H236.598L236.598 500Z" fill="#C1E0F4"></path><path d="M308.148 333.965C308.148 356.892 289.495 375.471 266.499 375.471C243.502 375.471 224.849 356.882 224.849 333.965H183.2C183.2 379.819 220.496 416.987 266.509 416.987C312.521 416.987 349.818 379.819 349.818 333.965H308.168H308.148Z" fill="#EF548A"></path><path d="M266.499 375.471C289.505 375.471 308.148 356.882 308.148 333.965H224.839C224.839 356.892 243.492 375.471 266.489 375.471H266.499Z" fill="#1C194F"></path><path d="M480.01 208.18H390.557V332.708H480.01V208.18Z" fill="#1C194F"></path><path d="M435.278 248.689C459.977 248.689 480 230.106 480 207.183C480 184.259 459.977 165.676 435.278 165.676C410.579 165.676 390.557 184.259 390.557 207.183C390.557 230.106 410.579 248.689 435.278 248.689Z" fill="#C1E0F4"></path><path d="M391.918 293.406C391.157 316.214 371.603 333.965 348.697 333.965H307.758C307.698 333.965 307.658 333.925 307.658 333.865V250.075C307.658 250.015 307.698 249.975 307.758 249.975H349.798C373.545 249.975 392.708 269.561 391.908 293.406H391.918Z" fill="#EF548A"></path><path d="M243.593 206.544C244.353 183.737 263.907 165.985 286.813 165.985H327.752C327.812 165.985 327.852 166.025 327.852 166.085V165.985H349.177L327.852 249.975V249.875C327.852 249.935 327.812 249.975 327.752 249.975H285.712C261.966 249.975 242.802 230.389 243.603 206.544H243.593Z" fill="#1C194F"></path><path d="M250.628 333.965H307.658L391.938 165.985H334.907L250.628 333.965Z" fill="#C1E0F4"></path></g><defs><clipPath id="clip0_8_531"><rect width="480" height="500" fill="white"></rect></clipPath></defs></svg>