<svg xmlns="http://www.w3.org/2000/svg" width="289" height="101" viewBox="0 0 289 101" fill="none"><g clip-path="url(#clip0_4_49)"><path d="M88.89 100.146H55.56V61.4444L65.06 72.4706L88.89 100.146Z" fill="#EF548A"></path><path d="M111.11 17.2201C111.11 23.8379 106.57 29.55 100 32.207C97.48 33.232 94.65 33.7993 91.67 33.7993C88.69 33.7993 85.86 33.232 83.34 32.207V0.631073H91.67C94.65 0.631073 97.48 1.19831 100 2.22331C106.57 4.88034 111.11 10.5925 111.11 17.2102V17.2201Z" fill="#EF548A"></path><path d="M83.33 58.6779C83.33 64.191 78.79 68.9578 72.22 71.1769C70.03 71.9233 67.6 72.3711 65.05 72.4706L55.55 61.4444V44.8553H63.88C66.86 44.8553 69.69 45.333 72.21 46.1888C78.78 48.408 83.32 53.1648 83.32 58.6779H83.33Z" fill="#EF548A"></path><path d="M16.66 44.8553H0.039978V83.5566H16.66V44.8553Z" fill="#C1E0F4"></path><path d="M100 32.207V44.8653H83.33V32.207C85.85 33.232 88.68 33.7993 91.66 33.7993C94.64 33.7993 97.47 33.232 99.99 32.207H100Z" fill="#C1E0F4"></path><path d="M44.44 83.5566H0.039978V100.146H44.44V83.5566Z" fill="#C1E0F4"></path><path d="M83.33 0.671082L63.89 22.7534L44.44 0.671082H83.33Z" fill="#C1E0F4"></path><path d="M44.44 44.8255L63.88 22.7432L83.32 44.8255H44.44Z" fill="#1C194F"></path><path d="M44.44 0.631073H0V17.2202H44.44V0.631073Z" fill="#1C194F"></path><path d="M44.44 28.2862H0V44.8752H44.44V28.2862Z" fill="#1C194F"></path><path d="M36.11 44.8653C25.37 44.8653 16.67 53.5231 16.67 64.2109C16.67 74.8988 25.37 83.5566 36.11 83.5566C46.85 83.5566 55.55 74.8988 55.55 64.2109C55.55 53.5231 46.85 44.8653 36.11 44.8653ZM36.11 72.5104C31.51 72.5104 27.78 68.7985 27.78 64.2209C27.78 59.6432 31.51 55.9313 36.11 55.9313C40.71 55.9313 44.44 59.6432 44.44 64.2209C44.44 68.7985 40.71 72.5104 36.11 72.5104Z" fill="#1C194F"></path><path d="M94.44 94.6226C97.5107 94.6226 100 92.1454 100 89.0896C100 86.0338 97.5107 83.5566 94.44 83.5566C91.3693 83.5566 88.88 86.0338 88.88 89.0896C88.88 92.1454 91.3693 94.6226 94.44 94.6226Z" fill="#EF548A"></path><path d="M94.44 78.0335C97.5107 78.0335 100 75.5563 100 72.5005C100 69.4447 97.5107 66.9675 94.44 66.9675C91.3693 66.9675 88.88 69.4447 88.88 72.5005C88.88 75.5563 91.3693 78.0335 94.44 78.0335Z" fill="#C1E0F4"></path><path d="M94.44 61.4544C97.5107 61.4544 100 58.9772 100 55.9214C100 52.8656 97.5107 50.3884 94.44 50.3884C91.3693 50.3884 88.88 52.8656 88.88 55.9214C88.88 58.9772 91.3693 61.4544 94.44 61.4544Z" fill="#1C194F"></path><path d="M131.1 60.2998H136.84C141.22 60.2998 144.5 63.5439 144.5 68.1913C144.5 72.8386 141.22 76.0828 136.84 76.0828H131.1V60.2998ZM136.73 73.2068C139.74 73.2068 141.31 71.1668 141.31 68.1813C141.31 65.1959 139.75 63.1558 136.73 63.1558H134.16V73.1969H136.73V73.2068Z" fill="#221F1F"></path><path d="M151.22 60.2998H154.28V76.0828H151.22V60.2998Z" fill="#221F1F"></path><path d="M160.89 72.3709L163.37 71.2364C163.82 72.4605 164.82 73.5452 166.43 73.5452C167.68 73.5452 168.75 72.8983 168.75 71.525C168.75 70.3707 168.06 69.8631 166.45 69.2163L165.45 68.8381C163.28 67.9723 161.5 66.7682 161.5 64.3699C161.5 61.7228 163.71 60.0808 166.39 60.0808C169.07 60.0808 170.77 61.7527 171.48 63.4146L169.2 64.6784C168.53 63.4146 167.66 62.7876 166.5 62.7876C165.34 62.7876 164.51 63.3449 164.51 64.3898C164.51 65.2158 164.98 65.8527 166.72 66.5194L167.79 66.9374C170.56 68.052 171.94 69.2959 171.94 71.535C171.94 74.7393 169.13 76.2918 166.47 76.2918C163.81 76.2918 161.44 74.6697 160.89 72.3609V72.3709Z" fill="#221F1F"></path><path d="M178.21 68.1913C178.21 63.2852 181.94 60.0808 186.38 60.0808C188.55 60.0808 191.14 60.8372 192.81 63.5041L190.58 65.0367C189.55 63.5738 188.01 62.9668 186.47 62.9668C183.66 62.9668 181.33 64.9869 181.33 68.1913C181.33 71.3956 183.67 73.4158 186.49 73.4158C188.08 73.4158 189.55 72.8187 190.58 71.3459L192.81 72.8784C191.13 75.5454 188.54 76.3017 186.38 76.3017C181.91 76.3017 178.21 73.1073 178.21 68.1913Z" fill="#221F1F"></path><path d="M198.87 68.1913C198.87 63.3449 202.6 60.0808 207.02 60.0808C211.44 60.0808 215.19 63.3449 215.19 68.1913C215.19 73.0376 211.44 76.3017 207.02 76.3017C202.6 76.3017 198.87 73.0376 198.87 68.1913ZM212.05 68.1913C212.05 65.0168 209.75 62.9668 207.03 62.9668C204.31 62.9668 202 65.0068 202 68.1913C202 71.3757 204.32 73.4158 207.03 73.4158C209.74 73.4158 212.05 71.3757 212.05 68.1913Z" fill="#221F1F"></path><path d="M219.9 60.2998H223.21L227.63 72.2813L232.05 60.2998H235.36L229.24 76.0828H226L219.9 60.2998Z" fill="#221F1F"></path><path d="M250.94 73.2765V76.0728H241.76V60.2898H250.74V63.0862H244.82V66.7483H249.8V69.5049H244.82V73.2566H250.94V73.2765Z" fill="#221F1F"></path><path d="M263.2 70.8583H260.83V76.0828H257.77V60.2998H263.33C266.7 60.2998 268.94 62.4294 268.94 65.6537C268.94 67.9226 267.85 69.5646 266.01 70.3408L269.72 76.0728H266.46L263.2 70.8483V70.8583ZM260.83 68.2112H263.02C264.7 68.2112 265.83 67.5046 265.83 65.6537C265.83 63.8027 264.69 63.0961 263.02 63.0961H260.83V68.2112Z" fill="#221F1F"></path><path d="M279.83 69.7736L274.09 60.3097H277.55L281.35 66.9075L285.17 60.3097H288.63L282.89 69.7736V76.0828H279.83V69.7736Z" fill="#221F1F"></path><path d="M130.43 83.9843H133.65L136.75 94.493L140.14 83.9843H142.57L145.94 94.493L149.07 83.9843H152.29L147.35 99.7673H144.94L141.34 89.1391L137.77 99.7673H135.34L130.43 83.9843Z" fill="#221F1F"></path><path d="M157.36 91.8758C157.36 87.0294 161.09 83.7653 165.51 83.7653C169.93 83.7653 173.68 87.0294 173.68 91.8758C173.68 96.7221 169.93 99.9862 165.51 99.9862C161.09 99.9862 157.36 96.7221 157.36 91.8758ZM170.54 91.8758C170.54 88.7012 168.24 86.6512 165.52 86.6512C162.8 86.6512 160.49 88.6913 160.49 91.8758C160.49 95.0602 162.81 97.1003 165.52 97.1003C168.23 97.1003 170.54 95.0602 170.54 91.8758Z" fill="#221F1F"></path><path d="M186.05 94.5427H183.68V99.7673H180.62V83.9843H186.18C189.55 83.9843 191.79 86.1139 191.79 89.3381C191.79 91.6071 190.7 93.2491 188.86 94.0253L192.57 99.7573H189.31L186.05 94.5328V94.5427ZM183.68 91.8957H185.87C187.55 91.8957 188.68 91.1891 188.68 89.3381C188.68 87.4872 187.54 86.7806 185.87 86.7806H183.68V91.8957Z" fill="#221F1F"></path><path d="M208.54 96.9609V99.7573H199.29V83.9743H202.35V96.951H208.54V96.9609Z" fill="#221F1F"></path><path d="M215.26 83.9843H221C225.38 83.9843 228.66 87.2284 228.66 91.8758C228.66 96.5231 225.38 99.7673 221 99.7673H215.26V83.9843ZM220.89 96.8913C223.9 96.8913 225.47 94.8512 225.47 91.8658C225.47 88.8804 223.91 86.8403 220.89 86.8403H218.32V96.8813H220.89V96.8913Z" fill="#221F1F"></path></g><defs><clipPath id="clip0_4_49"><rect width="288.63" height="99.5146" fill="white" transform="translate(0 0.631073)"></rect></clipPath></defs></svg>