<svg xmlns="http://www.w3.org/2000/svg" width="277" height="293" viewBox="0 0 277 293" fill="none"><g clip-path="url(#clip0_8_600)"><path d="M41.5505 113.004H0.10788V211.877H41.5505V113.004Z" fill="white"></path><path d="M249.294 80.6733V113.004H207.743V80.6733C214.036 83.2925 221.084 84.7507 228.519 84.7507C235.953 84.7507 243.001 83.2925 249.294 80.6733Z" fill="white"></path><path d="M110.798 211.876H0.10788V254.252H110.798V211.876Z" fill="white"></path><path d="M207.752 0.0991211L159.28 56.5065L110.798 0.0991211H207.743H207.752Z" fill="white"></path><path d="M235.45 197.754C243.1 197.754 249.303 191.432 249.303 183.632C249.303 175.833 243.1 169.51 235.45 169.51C227.799 169.51 221.596 175.833 221.596 183.632C221.596 191.432 227.799 197.754 235.45 197.754Z" fill="white"></path><path d="M110.798 112.923L159.271 56.5156L207.743 112.923H110.798Z" fill="#1C194F"></path><path d="M110.798 0H0V42.3753H110.798V0Z" fill="#1C194F"></path><path d="M110.798 70.6558H0V113.031H110.798V70.6558Z" fill="#1C194F"></path><path d="M90.023 113.013C63.2426 113.013 41.5504 135.145 41.5504 162.454C41.5504 189.762 63.2516 211.894 90.023 211.894C116.794 211.894 138.495 189.762 138.495 162.454C138.495 135.145 116.794 113.013 90.023 113.013ZM90.023 183.641C78.5431 183.641 69.2477 174.164 69.2477 162.454C69.2477 150.744 78.5431 141.266 90.023 141.266C101.503 141.266 110.798 150.744 110.798 162.454C110.798 174.164 101.503 183.641 90.023 183.641Z" fill="#1C194F"></path><path d="M235.45 155.379C243.1 155.379 249.303 149.056 249.303 141.257C249.303 133.457 243.1 127.135 235.45 127.135C227.799 127.135 221.596 133.457 221.596 141.257C221.596 149.056 227.799 155.379 235.45 155.379Z" fill="#1C194F"></path><path d="M221.596 254.252H138.495V155.379L162.183 183.552L221.596 254.252Z" fill="#EF548A"></path><path d="M277 42.3753C277 59.2786 265.673 73.8778 249.303 80.6733C243.01 83.2925 235.962 84.7506 228.527 84.7506C221.093 84.7506 214.045 83.2925 207.752 80.6733V0H228.527C235.962 0 243.01 1.45811 249.303 4.07732C265.673 10.8729 277 25.472 277 42.3753Z" fill="#EF548A"></path><path d="M207.752 148.314C207.752 162.409 196.425 174.569 180.055 180.239C174.589 182.138 168.548 183.299 162.192 183.551L138.513 155.379V113.004H159.289C166.723 113.004 173.771 114.228 180.064 116.406C196.434 122.068 207.761 134.237 207.761 148.314H207.752Z" fill="#EF548A"></path><path d="M235.45 240.13C243.1 240.13 249.303 233.807 249.303 226.008C249.303 218.208 243.1 211.886 235.45 211.886C227.799 211.886 221.596 218.208 221.596 226.008C221.596 233.807 227.799 240.13 235.45 240.13Z" fill="#EF548A"></path><path d="M0 278.5H5.16908C9.10658 278.5 12.0642 281.443 12.0642 285.646C12.0642 289.849 9.10658 292.793 5.16908 292.793H0V278.5ZM5.0702 290.191C7.78509 290.191 9.18749 288.337 9.18749 285.637C9.18749 282.937 7.7761 281.092 5.0702 281.092H2.75085V290.191H5.06121H5.0702Z" fill="#221F1F"></path><path d="M18.1143 278.5H20.8651V292.793H18.1143V278.5Z" fill="#221F1F"></path><path d="M26.8163 289.427L29.0458 288.401C29.4503 289.508 30.3493 290.498 31.7966 290.498C32.9203 290.498 33.8912 289.913 33.8912 288.662C33.8912 287.617 33.2709 287.149 31.8236 286.564L30.9156 286.222C28.9648 285.439 27.3557 284.35 27.3557 282.172C27.3557 279.778 29.3424 278.284 31.7606 278.284C34.1789 278.284 35.6981 279.796 36.3454 281.308L34.2957 282.46C33.6934 281.308 32.9113 280.75 31.8595 280.75C30.8077 280.75 30.0706 281.254 30.0706 282.199C30.0706 282.946 30.4931 283.531 32.0573 284.134L33.0192 284.512C35.5094 285.52 36.7589 286.645 36.7589 288.68C36.7589 291.578 34.2238 292.991 31.8326 292.991C29.4413 292.991 27.3107 291.524 26.8073 289.427H26.8163Z" fill="#221F1F"></path><path d="M42.4135 285.646C42.4135 281.2 45.7666 278.302 49.776 278.302C51.7268 278.302 54.0551 278.986 55.5654 281.398L53.5517 282.784C52.6258 281.452 51.2413 280.912 49.8569 280.912C47.3218 280.912 45.2362 282.748 45.2362 285.646C45.2362 288.545 47.3488 290.381 49.8839 290.381C51.3133 290.381 52.6348 289.841 53.5607 288.509L55.5744 289.895C54.0641 292.316 51.7358 292.991 49.785 292.991C45.7666 292.991 42.4224 290.093 42.4224 285.646H42.4135Z" fill="#221F1F"></path><path d="M61.0132 285.646C61.0132 281.263 64.3663 278.302 68.3488 278.302C72.3312 278.302 75.7114 281.263 75.7114 285.646C75.7114 290.03 72.3312 292.991 68.3488 292.991C64.3663 292.991 61.0132 290.03 61.0132 285.646ZM72.8796 285.646C72.8796 282.766 70.812 280.912 68.3578 280.912C65.9036 280.912 63.836 282.766 63.836 285.646C63.836 288.527 65.9306 290.381 68.3578 290.381C70.785 290.381 72.8796 288.527 72.8796 285.646Z" fill="#221F1F"></path><path d="M79.9455 278.5H82.9211L86.9035 289.345L90.886 278.5H93.8616L88.3509 292.793H85.4382L79.9455 278.5Z" fill="#221F1F"></path><path d="M107.886 290.254V292.793H99.624V278.5H107.706V281.038H102.375V284.359H106.861V286.852H102.375V290.254H107.886Z" fill="#221F1F"></path><path d="M118.925 288.068H116.794V292.802H114.043V278.509H119.051C122.089 278.509 124.094 280.444 124.094 283.36C124.094 285.412 123.105 286.906 121.46 287.609L124.795 292.802H121.856L118.925 288.068ZM116.794 285.673H118.763C120.273 285.673 121.298 285.025 121.298 283.36C121.298 281.695 120.273 281.047 118.763 281.047H116.794V285.682V285.673Z" fill="#221F1F"></path><path d="M133.902 287.077L128.733 278.5H131.852L135.268 284.476L138.702 278.5H141.822L136.653 287.077V292.793H133.902V287.077Z" fill="#221F1F"></path><path d="M156.906 278.509H159.801L162.597 288.032L165.653 278.509H167.847L170.885 288.032L173.699 278.509H176.594L172.153 292.802H169.977L166.741 283.18L163.523 292.802H161.329L156.906 278.509Z" fill="#221F1F"></path><path d="M181.152 285.655C181.152 281.272 184.505 278.311 188.487 278.311C192.47 278.311 195.85 281.272 195.85 285.655C195.85 290.038 192.47 293 188.487 293C184.505 293 181.152 290.038 181.152 285.655ZM193.018 285.655C193.018 282.775 190.95 280.921 188.496 280.921C186.042 280.921 183.974 282.775 183.974 285.655C183.974 288.535 186.069 290.39 188.496 290.39C190.923 290.39 193.018 288.535 193.018 285.655Z" fill="#221F1F"></path><path d="M206.988 288.076H204.858V292.811H202.107V278.518H207.114C210.152 278.518 212.157 280.453 212.157 283.369C212.157 285.421 211.168 286.915 209.523 287.617L212.858 292.811H209.928L206.988 288.076ZM204.858 285.682H206.826C208.337 285.682 209.361 285.034 209.361 283.369C209.361 281.704 208.337 281.056 206.826 281.056H204.858V285.691V285.682Z" fill="#221F1F"></path><path d="M227.224 290.264V292.802H218.899V278.509H221.65V290.264H227.215H227.224Z" fill="#221F1F"></path><path d="M233.274 278.509H238.443C242.381 278.509 245.338 281.452 245.338 285.655C245.338 289.859 242.381 292.802 238.443 292.802H233.274V278.509ZM238.344 290.201C241.059 290.201 242.462 288.347 242.462 285.646C242.462 282.946 241.05 281.101 238.344 281.101H236.034V290.201H238.344Z" fill="#221F1F"></path></g><defs><clipPath id="clip0_8_600"><rect width="277" height="293" fill="white"></rect></clipPath></defs></svg>