<svg xmlns="http://www.w3.org/2000/svg" width="653" height="348" viewBox="0 0 653 348" fill="none"><g clip-path="url(#clip0_8_383)"><rect width="652.69" height="347.33" fill="white"></rect><path d="M137.21 73.29L87.47 172.63C112.58 178.88 139.6 167.36 151.91 143.38C164.41 119.03 157.64 89.89 137.2 73.29H137.21Z" fill="#EF548A"></path><path d="M17.84 31.42C5.1 56.82 13.17 87.19 35.62 103.19L85.96 2.65C59.71 -5.66999 30.57 6.05 17.84 31.42Z" fill="#EF548A"></path><path d="M86.62 1.31006L85.96 2.65006L35.62 103.19L0 174.32H86.62L87.47 172.63L137.21 73.2901L173.25 1.31006H86.62Z" fill="#C1E0F4"></path><path d="M281.53 1.31006V87.8201C281.53 99.7601 271.83 109.45 259.87 109.45C247.91 109.45 238.21 99.7701 238.21 87.8201V1.31006H173.24V87.8201C173.24 135.6 212.02 174.32 259.86 174.32C307.7 174.32 346.48 135.59 346.48 87.8201V1.31006H281.51H281.53Z" fill="#1C194F"></path><path d="M454.76 1.01001H346.54C346.523 1.01001 346.51 1.02344 346.51 1.04001V173.99C346.51 174.007 346.523 174.02 346.54 174.02H454.76C454.777 174.02 454.79 174.007 454.79 173.99V1.04001C454.79 1.02344 454.777 1.01001 454.76 1.01001Z" fill="#C1E0F4"></path><path d="M454.79 130.77C490.672 130.77 519.76 101.722 519.76 65.89C519.76 30.0578 490.672 1.01001 454.79 1.01001C418.908 1.01001 389.82 30.0578 389.82 65.89C389.82 101.722 418.908 130.77 454.79 130.77Z" fill="#EF548A"></path><path d="M108.25 174.32H0.03C0.0134315 174.32 0 174.333 0 174.35V347.3C0 347.317 0.0134315 347.33 0.03 347.33H108.25C108.267 347.33 108.28 347.317 108.28 347.3V174.35C108.28 174.333 108.267 174.32 108.25 174.32Z" fill="#1C194F"></path><path d="M108.28 304.08C144.162 304.08 173.25 275.032 173.25 239.2C173.25 203.368 144.162 174.32 108.28 174.32C72.3981 174.32 43.31 203.368 43.31 239.2C43.31 275.032 72.3981 304.08 108.28 304.08Z" fill="#EF538A"></path><path d="M259.87 347.33C307.709 347.33 346.49 308.603 346.49 260.83C346.49 213.057 307.709 174.33 259.87 174.33C212.031 174.33 173.25 213.057 173.25 260.83C173.25 308.603 212.031 347.33 259.87 347.33Z" fill="#1C194F"></path><path d="M259.87 282.46C271.832 282.46 281.53 272.776 281.53 260.83C281.53 248.884 271.832 239.2 259.87 239.2C247.908 239.2 238.21 248.884 238.21 260.83C238.21 272.776 247.908 282.46 259.87 282.46Z" fill="#C1E0F4"></path><path d="M367.95 217.58L497.89 347.33H367.95V217.58Z" fill="#C1E0F4"></path><path d="M420.67 174.32H368.08C368.01 174.32 367.95 174.38 367.95 174.45V282.32C367.95 282.39 368.01 282.45 368.08 282.45H422.09C452.61 282.45 477.23 257.24 476.2 226.53C475.22 197.16 450.1 174.32 420.67 174.32Z" fill="#EF548A"></path><path d="M411.24 174.32H346.33C346.313 174.32 346.3 174.333 346.3 174.35V347.3C346.3 347.317 346.313 347.33 346.33 347.33H411.24C411.257 347.33 411.27 347.317 411.27 347.3V174.35C411.27 174.333 411.257 174.32 411.24 174.32Z" fill="#1C194F"></path><path d="M652.69 174.32H476.23V217.57H652.69V174.32Z" fill="#C1E0F4"></path><path d="M610.64 217.58H519.54V347.34H610.64V217.58Z" fill="#1C194F"></path></g><defs><clipPath id="clip0_8_383"><rect width="652.69" height="347.33" fill="white"></rect></clipPath></defs></svg>