<?xml version="1.0" encoding="utf-8"?>
<!-- Generator: Adobe Illustrator 26.5.0, SVG Export Plug-In . SVG Version: 6.00 Build 0)  -->
<svg version="1.1" id="Layer_1" xmlns="http://www.w3.org/2000/svg" xmlns:xlink="http://www.w3.org/1999/xlink" x="0px" y="0px"
	 viewBox="0 0 653 348" style="enable-background:new 0 0 653 348;" xml:space="preserve">
<style type="text/css">
	.st0{fill:none;}
	.st1{fill:#FFFFFF;}
	.st2{fill:#EF548A;}
	.st3{fill:#C1E0F4;}
	.st4{fill:#1C194F;}
	.st5{fill:#EF538A;}
</style>
<rect class="st0" width="652.7" height="347.3"/>
<g>
	<rect class="st1" width="652.7" height="348"/>
	<path class="st2" d="M137.2,73.3l-49.7,99.3c25.1,6.2,52.1-5.3,64.4-29.2C164.4,119,157.6,89.9,137.2,73.3L137.2,73.3z"/>
	<path class="st2" d="M17.8,31.4c-12.7,25.4-4.7,55.8,17.8,71.8L86,2.7C59.7-5.7,30.6,6.1,17.8,31.4z"/>
	<path class="st3" d="M86.6,0L86,1.4L35.6,102.7L0,174.3h86.6l0.8-1.7l49.7-100.1l36-72.5H86.6z"/>
	<path class="st4" d="M281.5,0v87.2c0,12-9.7,21.8-21.7,21.8s-21.7-9.8-21.7-21.8V0h-65v87.2c0,48.1,38.8,87.2,86.6,87.2
		s86.6-39,86.6-87.2V0H281.5L281.5,0z"/>
	<path class="st3" d="M454.8-0.3H346.5c0,0,0,0,0,0V174c0,0,0,0,0,0h108.2c0,0,0,0,0,0L454.8-0.3C454.8-0.3,454.8-0.3,454.8-0.3z"/>
	<path class="st2" d="M454.8,130.4c35.9,0,65-29.3,65-65.4c0-36.1-29.1-65.4-65-65.4s-65,29.3-65,65.4
		C389.8,101.2,418.9,130.4,454.8,130.4z"/>
	<path class="st4" d="M108.2,174.3H0c0,0,0,0,0,0V348c0,0,0,0,0,0h108.2c0,0,0,0,0,0L108.2,174.3
		C108.3,174.3,108.3,174.3,108.2,174.3z"/>
	<path class="st5" d="M108.3,304.1c35.9,0,65-29,65-64.9s-29.1-64.9-65-64.9c-35.9,0-65,29-65,64.9S72.4,304.1,108.3,304.1z"/>
	<path class="st4" d="M259.9,347.9c47.8,0,86.6-38.8,86.6-86.8c0-47.9-38.8-86.8-86.6-86.8s-86.6,38.8-86.6,86.8
		C173.2,309,212,347.9,259.9,347.9z"/>
	<path class="st3" d="M259.9,282.5c12,0,21.7-9.7,21.7-21.6c0-11.9-9.7-21.6-21.7-21.6c-12,0-21.7,9.7-21.7,21.6
		C238.2,272.8,247.9,282.5,259.9,282.5z"/>
	<path class="st3" d="M368,217.8L497.9,348H368V217.8z"/>
	<path class="st2" d="M420.7,174.3h-52.6c-0.1,0-0.1,0.1-0.1,0.1v107.9c0,0.1,0.1,0.1,0.1,0.1h54c30.5,0,55.1-25.2,54.1-55.9
		C475.2,197.2,450.1,174.3,420.7,174.3z"/>
	<path class="st4" d="M411.2,174.3h-64.9c0,0,0,0,0,0V348c0,0,0,0,0,0h64.9c0,0,0,0,0,0L411.2,174.3
		C411.3,174.3,411.3,174.3,411.2,174.3z"/>
	<path class="st3" d="M652.7,174.3H476.2v43.2h176.5V174.3z"/>
	<path class="st4" d="M610.6,217.8h-91.1V348h91.1V217.8z"/>
</g>
</svg>
