<svg width="154" height="720" viewBox="0 0 154 720" fill="none" xmlns="http://www.w3.org/2000/svg">
<g clip-path="url(#clip0_8_335)">
<path d="M0 644.21L0 720H154V644.21H0Z" fill="#EF548A"/>
<path d="M96.25 587.37V644.21H154V587.37H96.25Z" fill="#C1E0F4"/>
<path d="M77 341.05V284.21C34.4755 284.21 0 318.14 0 360C0 401.86 34.4755 435.79 77 435.79V341.05Z" fill="#EF548A"/>
<path d="M154 378.94H77V435.78H154V378.94Z" fill="#C1E0F4"/>
<path d="M154 284.2H77V341.04H154V284.2Z" fill="#C1E0F4"/>
<path d="M96.25 378.94C106.881 378.94 115.5 370.456 115.5 359.99C115.5 349.524 106.881 341.04 96.25 341.04C85.6185 341.04 77 349.524 77 359.99C77 370.456 85.6185 378.94 96.25 378.94Z" fill="#1C194F"/>
<path d="M57.7397 435.8H0V587.35H57.7397V435.8Z" fill="#1C194F"/>
<path d="M96.25 473.66H57.7603V587.35H96.25V473.66Z" fill="#C1E0F4"/>
<path d="M154 435.8H96.2603V587.35H154V435.8Z" fill="#1C194F"/>
<path d="M38.5 264.09L154 150.41V264.09H38.5Z" fill="#C1E0F4"/>
<path d="M0 217.96V263.97C0 264.03 0.0513333 264.08 0.112933 264.08H96.1371C96.1987 264.08 96.25 264.03 96.25 263.97V216.71C96.25 190.01 73.8071 168.47 46.4772 169.37C20.3383 170.24 0 192.22 0 217.96Z" fill="#EF548A"/>
<path d="M0 226.23L0 283.01C0 283.027 0.0137884 283.04 0.0307987 283.04H153.969C153.986 283.04 154 283.027 154 283.01V226.23C154 226.213 153.986 226.2 153.969 226.2H0.0307987C0.0137884 226.2 0 226.213 0 226.23Z" fill="#1C194F"/>
<path d="M0 75.79H77L154 0H0V75.79Z" fill="#EF548A"/>
<path d="M154 151.58V75.79H77L0 151.58H154Z" fill="#1C194F"/>
<rect y="717" width="786" height="350" fill="#C1E0F4"/>
</g>
<defs>
<clipPath id="clip0_8_335">
<rect width="154" height="720" fill="white"/>
</clipPath>
</defs>
</svg>
